<svg width="20" height="15" viewBox="0 0 20 15" fill="none" xmlns="http://www.w3.org/2000/svg">
<path d="M2.72727 0C1.22409 0 0 1.22409 0 2.72727V11.8182C0 13.3214 1.22409 14.5455 2.72727 14.5455H17.2727C18.7759 14.5455 20 13.3214 20 11.8182V2.72727C20 1.22409 18.7759 0 17.2727 0H2.72727ZM2.72727 0.909091H17.2727C18.2877 0.909091 19.0909 1.71227 19.0909 2.72727V11.8182C19.0909 12.8332 18.2877 13.6364 17.2727 13.6364H2.72727C2.488 13.6382 2.25075 13.5924 2.02934 13.5017C1.80793 13.4109 1.60677 13.2771 1.43758 13.1079C1.26838 12.9387 1.13452 12.7375 1.04379 12.5161C0.953065 12.2947 0.907276 12.0575 0.909091 11.8182V2.72727C0.909091 1.71227 1.71227 0.909091 2.72727 0.909091Z" fill="white"/>
<path d="M3.19505 2.72723C3.13315 2.72548 3.07155 2.73638 3.01402 2.75929C2.9565 2.78219 2.90425 2.8166 2.8605 2.86042C2.77529 2.94566 2.72742 3.06125 2.72742 3.18178C2.72742 3.30231 2.77529 3.4179 2.8605 3.50314L8.31505 8.95769C9.24187 9.88496 10.7582 9.88496 11.685 8.95769L17.1396 3.50314C17.2248 3.4179 17.2727 3.30231 17.2727 3.18178C17.2727 3.06125 17.2248 2.94566 17.1396 2.86042C17.0544 2.7752 16.9388 2.72733 16.8182 2.72733C16.6977 2.72733 16.5821 2.7752 16.4969 2.86042L11.0423 8.31496C10.9059 8.45264 10.7436 8.56193 10.5647 8.63651C10.3858 8.71109 10.1939 8.74949 10 8.74949C9.80623 8.74949 9.61433 8.71109 9.43543 8.63651C9.25654 8.56193 9.09419 8.45264 8.95777 8.31496L3.50323 2.86042C3.42126 2.77832 3.31101 2.73067 3.19505 2.72723Z" fill="white"/>
</svg>
