<svg width="32" height="32" viewBox="0 0 32 32" fill="none" xmlns="http://www.w3.org/2000/svg">
<mask id="mask0_20_535" style="mask-type:luminance" maskUnits="userSpaceOnUse" x="0" y="0" width="32" height="32">
<path d="M0 32V0H32V32H0Z" fill="#76ABC4"/>
</mask>
<g mask="url(#mask0_20_535)">
<path fill-rule="evenodd" clip-rule="evenodd" d="M32 15.9897C32 24.8318 24.8298 31.9997 15.985 31.9997C7.14019 31.9997 -0.0300293 24.8318 -0.0300293 15.9897C-0.0300293 7.14772 7.14019 -0.0202637 15.985 -0.0202637C24.8298 -0.0202637 32 7.14772 32 15.9897Z" fill="#76ABC4"/>
</g>
<path fill-rule="evenodd" clip-rule="evenodd" d="M23.9925 23.9951H7.97746C7.44653 23.9951 6.93735 23.7842 6.56192 23.4089C6.1865 23.0336 5.97559 22.5246 5.97559 21.9938V11.9875V20.9932C5.97557 21.5214 6.18442 22.0281 6.5566 22.403C6.92879 22.7779 7.43412 22.9905 7.96245 22.9944H24.0075C24.5358 22.9905 25.0412 22.7779 25.4133 22.403C25.7855 22.0281 25.9944 21.5214 25.9944 20.9932V21.9938C25.9944 22.5246 25.7834 23.0336 25.408 23.4089C25.0326 23.7842 24.5234 23.9951 23.9925 23.9951Z" fill="#638DA0"/>
<path fill-rule="evenodd" clip-rule="evenodd" d="M25.9944 20.9931C25.9944 21.5239 25.7834 22.0329 25.408 22.4082C25.0326 22.7835 24.5234 22.9944 23.9925 22.9944H7.97746C7.44653 22.9944 6.93735 22.7835 6.56192 22.4082C6.1865 22.0329 5.97559 21.5239 5.97559 20.9931V10.9868C5.97559 10.4561 6.1865 9.94706 6.56192 9.57175C6.93735 9.19644 7.44653 8.9856 7.97746 8.9856H23.9925C24.5234 8.9856 25.0326 9.19644 25.408 9.57175C25.7834 9.94706 25.9944 10.4561 25.9944 10.9868V20.9931Z" fill="#DEDECA"/>
<path fill-rule="evenodd" clip-rule="evenodd" d="M25.658 21.9734C25.5987 21.901 25.5356 21.8318 25.4688 21.7663L18.3181 16.4159L18.8231 15.9897L25.4688 21.6072C25.5589 21.7067 25.633 21.8038 25.6995 21.8999C25.686 21.9245 25.6721 21.9491 25.658 21.9734ZM6.31186 21.9734C6.29772 21.9491 6.28387 21.9245 6.27032 21.8999C6.33689 21.8038 6.41096 21.7067 6.50104 21.6072L13.1548 15.9832L13.6557 16.4129L6.50104 21.7663C6.43428 21.8318 6.37113 21.901 6.31186 21.9734Z" fill="#B3B2A4"/>
<path fill-rule="evenodd" clip-rule="evenodd" d="M17.7486 15.9903C16.7787 15.0397 15.1912 15.0397 14.2213 15.9903L6.50104 21.7669C6.41096 21.855 6.33689 21.941 6.27032 22.0261C6.44717 22.321 6.6973 22.5651 6.99642 22.7349C7.29554 22.9046 7.63348 22.9941 7.97743 22.9947H23.9924C24.7186 22.9947 25.3482 22.6044 25.6995 22.0261C25.6285 21.9346 25.5515 21.848 25.4688 21.7669L17.7486 15.9903Z" fill="#DEDECA"/>
<path fill-rule="evenodd" clip-rule="evenodd" d="M18.8231 15.99L17.7486 15.0819C17.2636 14.5451 16.624 14.2764 15.9849 14.2764C15.3458 14.2764 14.7062 14.5451 14.2213 15.0819L13.1548 15.9835L6.27032 10.0803C6.62115 9.42737 7.24974 8.9866 7.97492 8.9856H23.9949C24.7201 8.9866 25.3487 9.42737 25.6995 10.0803C25.629 10.1825 25.5519 10.2801 25.4688 10.3725L18.8231 15.99Z" fill="#B3B2A4"/>
<path fill-rule="evenodd" clip-rule="evenodd" d="M18.3181 16.4164L17.7486 15.9902C17.2769 15.5306 16.6436 15.2746 15.9849 15.2772C15.3263 15.2746 14.693 15.5306 14.2213 15.9902L13.6558 16.4134L13.1548 15.9837L14.2213 15.0821C14.7062 14.5453 15.3458 14.2766 15.9849 14.2766C16.624 14.2766 17.2636 14.5453 17.7486 15.0821L18.8231 15.9902L18.3181 16.4164Z" fill="#939388"/>
<path fill-rule="evenodd" clip-rule="evenodd" d="M15.985 17.7039C15.3459 17.7039 14.7063 17.4352 14.2214 16.8984L13.6558 16.4136L14.2214 15.9903C14.693 15.5307 15.3264 15.2747 15.985 15.2774C16.6436 15.2747 17.277 15.5307 17.7487 15.9903L18.3182 16.4166L17.7487 16.8984C17.2637 17.4352 16.6241 17.7039 15.985 17.7039Z" fill="#B3B2A4"/>
<path fill-rule="evenodd" clip-rule="evenodd" d="M14.2213 15.99C15.1912 16.9406 16.7787 16.9406 17.7486 15.99L25.4688 10.2134C25.5589 10.1253 25.633 10.0393 25.6995 9.9542C25.5227 9.65933 25.2725 9.41519 24.9734 9.24548C24.6743 9.07576 24.3364 8.98624 23.9924 8.9856H7.97743C7.25124 8.9856 6.62115 9.37584 6.27032 9.9542C6.33689 10.0393 6.41096 10.1253 6.50104 10.2134L14.2213 15.99Z" fill="#FFFFFE"/>
</svg>
