<svg width="32" height="32" viewBox="0 0 32 32" fill="none" xmlns="http://www.w3.org/2000/svg">
<path d="M0.688592 9.5243C1.77108 4.28726 5.10179 1.3704 10.2971 0.489245C14.1376 -0.161996 17.9796 -0.170244 21.8137 0.507532C27.163 1.45309 30.3788 4.54005 31.4033 9.85626C32.1948 13.9648 32.2072 18.1172 31.3908 22.2218C30.2957 27.4226 26.8791 30.6329 21.7029 31.5108C17.8624 32.162 14.0204 32.1702 10.1863 31.4925C4.83701 30.5469 1.60692 27.3058 0.582538 21.9897C-0.249317 17.854 -0.169276 13.6754 0.688592 9.52423V9.5243Z" fill="#0BCD74"/>
<path fill-rule="evenodd" clip-rule="evenodd" d="M9.14002 14.775L10.384 14.316C10.384 14.316 11.3429 16.2338 13.2359 18.1335C15.1289 20.0331 17.2244 21.0638 17.2244 21.0638L16.6875 22.3247C16.6875 22.3247 14.3275 20.9539 12.3765 18.9959C10.4253 17.038 9.14002 14.775 9.14002 14.775ZM23.0512 20.7133C23.8937 21.1337 24.077 22.2595 23.4117 22.9272L20.5597 25.7892C20.3523 25.9974 20.0988 26.1535 19.8198 26.2446C19.5408 26.3358 19.2443 26.3594 18.9545 26.3135C18.7599 26.2825 18.566 26.2474 18.3728 26.2082C16.6319 25.971 13.2067 25.0813 9.91435 21.7774C6.43899 18.2899 5.44805 14.3829 5.1682 12.6034C5.12251 12.3126 5.14603 12.0151 5.23685 11.7351C5.32767 11.4552 5.48321 11.2008 5.69075 10.9927L8.54278 8.1307C9.20813 7.46297 10.3301 7.64699 10.749 8.4925L12.9502 12.9347L11.85 13.4797L9.80994 9.33314C9.69145 9.0924 9.37221 9.03954 9.18297 9.22944L6.8477 11.5729C6.72711 11.6939 6.63279 11.8386 6.57068 11.998C6.50857 12.1574 6.48001 12.3279 6.4868 12.4989C6.52668 13.5127 6.82569 15.461 8.28394 17.81C8.88289 18.7066 9.66086 19.6739 10.6719 20.6884C14.1692 24.198 17.3372 24.877 18.8591 24.9792C19.0664 24.9751 19.2293 24.9602 19.3433 24.9457C19.4938 24.9266 19.6402 24.8795 19.7685 24.7984C19.8456 24.7499 19.9171 24.6928 19.9814 24.6282L22.3167 22.2848C22.5059 22.0949 22.4534 21.7745 22.2133 21.6556L18.0813 19.6084L18.6245 18.5044L23.0512 20.7133ZM15.9324 12.0413C15.8082 12.0413 15.6892 11.9918 15.6014 11.9038C15.5136 11.8157 15.4643 11.6962 15.4643 11.5716V8.12088H16.4886V10.2865L19.9499 6.81323L20.6742 7.54006L17.2129 11.0134H19.3711V12.0413H15.9324H15.9324ZM24.7084 13.3561L25.7328 12.639V14.3004H24.7084V13.3561H24.7084ZM20.5898 14.9887L24.1584 11.4078H21.826V10.3799H25.1938C25.2988 10.3799 25.3995 10.4218 25.4738 10.4963C25.548 10.5708 25.5897 10.6719 25.5897 10.7773V11.4078H25.5726L25.5897 11.4251L21.3142 15.7155L20.59 14.9887H20.5898Z" fill="white"/>
</svg>
