<svg width="16" height="16" viewBox="0 0 16 16" fill="none" xmlns="http://www.w3.org/2000/svg">
<path d="M15.3322 11.0229L13.9035 9.59421C13.4776 9.17175 12.9028 8.93357 12.303 8.93102C11.7031 8.92847 11.1263 9.16175 10.6968 9.58058C10.4677 9.81104 10.1653 9.95443 9.8419 9.98607C9.51845 10.0177 9.19408 9.93564 8.92461 9.75397C7.86103 9.04415 6.94733 8.13221 6.23546 7.07C6.05699 6.79752 5.97788 6.47185 6.01147 6.14786C6.04507 5.82386 6.18931 5.52135 6.41989 5.29129C6.83492 4.86143 7.06519 4.28619 7.06143 3.68869C7.05767 3.09118 6.82017 2.51889 6.39976 2.09429L4.97109 0.66561C4.54337 0.239348 3.96413 0 3.36027 0C2.75641 0 2.17717 0.239348 1.74945 0.66561L1.33838 1.07733C-0.804622 3.22035 -0.644222 7.72589 3.81452 12.1821C6.50301 14.8712 9.20904 15.9973 11.4033 15.9973C12.0493 16.0188 12.693 15.9115 13.2971 15.6818C13.9011 15.452 14.4534 15.1043 14.9218 14.6589L15.3335 14.2472C15.7605 13.8192 16.0002 13.2393 16 12.6348C15.9998 12.0302 15.7596 11.4505 15.3322 11.0229ZM14.4139 13.3289L14.0022 13.7406C12.3138 15.4291 8.58692 15.1206 4.73147 11.2645C0.876011 7.40833 0.566899 3.67883 2.25532 1.99039L2.66379 1.57932C2.84771 1.39607 3.09675 1.29317 3.35637 1.29317C3.616 1.29317 3.86504 1.39607 4.04895 1.57932L5.47762 3.008C5.65819 3.18948 5.76069 3.43434 5.76324 3.69034C5.76579 3.94634 5.66818 4.19319 5.49126 4.37823C5.05245 4.81984 4.77872 5.39884 4.71595 6.01823C4.65317 6.63761 4.80515 7.25976 5.14643 7.78044C5.95528 8.99086 6.99541 10.0295 8.20703 10.8365C8.72614 11.1778 9.34665 11.3307 9.96491 11.2696C10.5832 11.2085 11.1618 10.9371 11.604 10.5008C11.7887 10.3218 12.0362 10.2223 12.2934 10.2239C12.5506 10.2255 12.797 10.3279 12.9794 10.5092L14.4081 11.9379C14.5002 12.0286 14.5734 12.1367 14.6236 12.2559C14.6737 12.375 14.6998 12.5029 14.7004 12.6322C14.7009 12.7615 14.6759 12.8896 14.6267 13.0092C14.5776 13.1287 14.5053 13.2374 14.4139 13.3289Z" fill="white"/>
</svg>
